<?xml version="1.0" encoding="UTF-8"?>
<svg version="1.1" xmlns="http://www.w3.org/2000/svg" width="1024" height="1024">
<path d="M0 0 C6.13232839 4.03749524 12.38348379 7.87375046 18.64233398 11.71142578 C20.35782192 12.7639879 22.07320449 13.81672156 23.78857422 14.86947632 C25.48636126 15.91143522 27.18422043 16.9532766 28.88208008 17.99511719 C33.41501975 20.78243557 37.93466735 23.59096365 42.45483398 26.39892578 C51.94726475 32.28927243 61.493665 38.08946995 71.05004883 43.87524414 C81.80867652 50.3913069 92.53540401 56.95056078 103.14233398 63.71142578 C109.62887995 67.82817672 116.166278 71.84361157 122.76733398 75.77392578 C131.35270154 80.88617967 139.83385373 86.15344168 148.29736328 91.46459961 C154.20225936 95.16837727 160.12349311 98.84099814 166.07983398 102.46142578 C172.90792406 106.6125766 179.68648803 110.83863678 186.45483398 115.08642578 C196.64635989 121.47830919 206.90664052 127.75040316 217.20043945 133.97558594 C260.10622609 159.92549914 260.10622609 159.92549914 264.07983398 173.33642578 C264.07983398 179.13910225 262.57922158 184.38388513 258.46362305 188.62817383 C253.60639032 193.04995141 248.36907341 196.48216605 242.70483398 199.77392578 C241.83487793 200.28745605 240.96492187 200.80098633 240.06860352 201.33007812 C232.20615432 205.94657514 224.24886345 210.38850831 216.25366211 214.77001953 C212.73243434 216.69989279 209.21723024 218.64053098 205.70483398 220.58642578 C204.98505371 220.98506836 204.26527344 221.38371094 203.52368164 221.79443359 C197.03299514 225.40359218 190.59109686 229.09683795 184.14944458 232.79251099 C174.192054 238.50508892 164.19792381 244.1321519 154.09863281 249.59155273 C147.52292213 253.15256598 141.01396048 256.82089766 134.51733398 260.52392578 C125.33203427 265.75218123 116.03765169 270.7277898 106.64624023 275.57470703 C102.96017567 277.48212307 99.35929636 279.50634853 95.76733398 281.58642578 C91.36135356 283.98461766 88.13586172 285.13281655 83.07983398 284.96142578 C75.76657436 281.0339345 75.76657436 281.0339345 74.46582031 277.10839844 C74.06950975 274.90399928 73.93773721 272.84854816 73.90405273 270.60986328 C73.09766453 238.06478257 62.52752471 211.44793248 38.85717773 188.43408203 C28.74820736 179.43411262 14.78700461 168.88200823 1.07983398 166.96142578 C1.07983398 166.30142578 1.07983398 165.64142578 1.07983398 164.96142578 C-1.62793096 164.31313017 -4.33633046 163.66771976 -7.04516602 163.02392578 C-8.18598633 162.75032227 -8.18598633 162.75032227 -9.34985352 162.47119141 C-37.33059316 155.8378264 -65.73802961 160.99680298 -90.30297852 175.64111328 C-94.47552078 178.24101232 -98.28938977 181.20942711 -102.00219727 184.43017578 C-103.92016602 185.96142578 -103.92016602 185.96142578 -106.92016602 186.96142578 C-106.92016602 187.62142578 -106.92016602 188.28142578 -106.92016602 188.96142578 C-107.98776167 189.90054287 -109.10255353 190.78605432 -110.23266602 191.64892578 C-129.25221907 207.94178185 -138.49667097 233.73558618 -140.92016602 257.96142578 C-141.17911004 262.42900938 -141.35114984 266.90019009 -141.36621094 271.37548828 C-141.47377242 276.51325417 -142.06404575 279.21423547 -145.92016602 282.96142578 C-148.69690568 285.14314981 -150.00544333 284.95565039 -153.61157227 284.71142578 C-157.85158449 284.1248477 -161.36004611 282.6014233 -165.10766602 280.58642578 C-165.77040527 280.24353516 -166.43314453 279.90064453 -167.1159668 279.54736328 C-169.391446 278.36567443 -171.65606104 277.16475818 -173.92016602 275.96142578 C-176.75926312 274.46101209 -179.59934367 272.96251422 -182.44091797 271.46679688 C-184.32635548 270.47239026 -186.20907224 269.47280581 -188.08886719 268.46777344 C-188.94843018 268.01192871 -189.80799316 267.55608398 -190.69360352 267.08642578 C-191.4610791 266.67650391 -192.22855469 266.26658203 -193.01928711 265.84423828 C-194.87317369 264.82102112 -194.87317369 264.82102112 -196.92016602 264.96142578 C-196.92016602 264.30142578 -196.92016602 263.64142578 -196.92016602 262.96142578 C-197.63567627 262.69338135 -198.35118652 262.42533691 -199.08837891 262.14916992 C-201.96249695 260.9436708 -204.54197954 259.53453747 -207.22875977 257.95751953 C-208.72052734 257.09416992 -208.72052734 257.09416992 -210.24243164 256.21337891 C-212.31804178 255.00444986 -214.39097185 253.79090756 -216.46118164 252.57275391 C-217.45698242 251.99847656 -218.4527832 251.42419922 -219.47875977 250.83251953 C-220.37908936 250.30585693 -221.27941895 249.77919434 -222.20703125 249.23657227 C-225.13450276 247.86068963 -227.72133294 247.34692994 -230.92016602 246.96142578 C-230.59016602 246.30142578 -230.26016602 245.64142578 -229.92016602 244.96142578 C-230.87717407 244.44926514 -230.87717407 244.44926514 -231.85351562 243.92675781 C-242.99355045 237.95513099 -254.1055268 231.96859674 -264.96240234 225.4934082 C-270.26075732 222.33419254 -275.62204153 219.30335207 -281.01245117 216.30444336 C-286.4982226 213.23676928 -291.88217135 210.01294486 -297.2253418 206.70336914 C-300.34295495 204.6322529 -300.34295495 204.6322529 -303.92016602 203.96142578 C-304.9217152 202.96297737 -305.92128898 201.96254749 -306.92016602 200.96142578 C-308.83699797 199.63928195 -310.77719356 198.35071867 -312.73266602 197.08642578 C-326.95381804 187.66855791 -326.95381804 187.66855791 -329.49047852 179.01611328 C-330.65694194 172.68742873 -328.99787639 168.00728393 -325.42797852 162.77392578 C-319.78439081 155.79816072 -312.50246603 151.50247359 -304.92016602 146.96142578 C-302.8565962 145.69233034 -300.794074 144.42152969 -298.73266602 143.14892578 C-297.66016602 142.49279297 -296.58766602 141.83666016 -295.48266602 141.16064453 C-291.37331473 138.63529941 -287.30518334 136.04557969 -283.23266602 133.46142578 C-274.50222197 127.92764555 -265.7046047 122.50685187 -256.89477539 117.10058594 C-249.48399545 112.54932998 -242.10011878 107.9574388 -234.73266602 103.33642578 C-225.86603222 97.77716975 -216.94979642 92.30553979 -208.00146484 86.87890625 C-202.61656984 83.6109153 -197.25230859 80.31475715 -191.92016602 76.96142578 C-185.62473997 73.00229503 -179.27909465 69.13014355 -172.92016602 65.27392578 C-164.88120948 60.39731374 -156.8847451 55.45855476 -148.92016602 50.46142578 C-140.22180363 45.0054486 -131.48083098 39.62632016 -122.703125 34.29907227 C-115.44947989 29.895844 -108.2105977 25.46924322 -100.98266602 21.02392578 C-99.90082031 20.35876953 -98.81897461 19.69361328 -97.7043457 19.00830078 C-91.23730982 15.02502353 -84.79533778 11.00416674 -78.3684082 6.95654297 C-48.50742663 -11.82162117 -31.48462154 -20.75656237 0 0 Z " fill="#5E49EE" transform="translate(544.920166015625,183.03857421875)"/>
<path d="M0 0 C9.00435979 4.54457637 17.88762927 9.31608066 26.71582031 14.19287109 C27.7104126 14.74128662 28.70500488 15.28970215 29.72973633 15.85473633 C31.63125699 16.90713323 33.52907444 17.9662571 35.42260742 19.03295898 C36.28120361 19.50983154 37.1397998 19.9867041 38.02441406 20.47802734 C38.77352051 20.89914795 39.52262695 21.32026855 40.29443359 21.75415039 C42.69328583 22.86027903 44.91590886 23.36138168 47.51660156 23.77880859 C47.51660156 24.43880859 47.51660156 25.09880859 47.51660156 25.77880859 C48.63292969 26.36146484 49.74925781 26.94412109 50.89941406 27.54443359 C62.5493145 33.64147155 74.10669014 39.89582392 85.64111328 46.20800781 C92.50523488 49.95769013 99.38527973 53.67800161 106.26660156 57.39599609 C110.64840587 59.76389861 115.02176358 62.14671251 119.39160156 64.53662109 C121.68321879 65.78410775 123.97488429 67.03150573 126.26660156 68.27880859 C127.31299805 68.85421387 128.35939453 69.42961914 129.4375 70.02246094 C149.55609033 80.94114122 171.61210178 87.94339118 194.45410156 82.09130859 C196.82111418 81.3608731 199.17704841 80.592919 201.51660156 79.77880859 C202.43570313 79.46298828 203.35480469 79.14716797 204.30175781 78.82177734 C220.25344947 72.6935735 235.27998542 63.50332626 250.22705078 55.28930664 C257.91086024 51.07731333 265.67653528 47.03380099 273.45825195 43.00634766 C279.73585735 39.74438596 285.87637552 36.32206494 291.98901367 32.76049805 C295.55895275 30.7233834 299.21323176 28.88770091 302.89941406 27.07177734 C310.58732096 23.25533728 318.2306559 19.35748246 325.85842896 15.42242432 C328.01076062 14.31207932 330.16394236 13.20339373 332.31713867 12.09472656 C340.39889115 7.92929956 348.47581314 3.75515004 356.44604492 -0.62133789 C363.64574247 -4.51419171 370.24090214 -7.32871995 378.51660156 -6.22119141 C384.19136269 -4.25685102 387.83060487 -0.59318479 390.51660156 4.77880859 C391.31056654 11.95827914 390.05421215 17.19793219 386.76660156 23.52880859 C386.15715698 24.75712402 386.15715698 24.75712402 385.53540039 26.01025391 C382.11327289 32.82485777 378.4360036 39.50342712 374.73876953 46.17163086 C368.53038324 57.430696 362.73567124 68.90361755 356.89819336 80.35791016 C351.94301854 90.07650931 346.91844004 99.75441453 341.82470703 109.40112305 C338.73156425 115.26044277 335.68470151 121.14335292 332.64160156 127.02880859 C326.78061747 138.34756411 320.89450584 149.65292767 314.99316406 160.95068359 C313.47887595 163.85106612 311.96625648 166.75231338 310.45410156 169.65380859 C305.42214309 179.30786829 300.37713055 188.95465642 295.30078125 198.58544922 C290.51967648 207.66157344 285.78110998 216.75985335 281.04003906 225.85693359 C279.55428512 228.70653347 278.06699614 231.55532593 276.57910156 234.40380859 C271.80650443 243.54187694 267.04314854 252.68459671 262.29980469 261.83789062 C261.11421352 264.12564006 259.92801882 266.41307683 258.74121094 268.70019531 C255.89915615 274.1773668 253.06332483 279.65751624 250.24316406 285.14599609 C237.02490205 310.80606277 224.32996848 332.32190744 195.51660156 341.77880859 C192.65722656 341.91552734 192.65722656 341.91552734 190.51660156 341.77880859 C190.18660156 342.43880859 189.85660156 343.09880859 189.51660156 343.77880859 C166.57738743 344.27330662 147.03722965 340.74316312 129.51660156 324.77880859 C122.81348314 318.05077152 118.58105753 309.79978534 114.19628906 301.47094727 C113.74769531 300.62250244 113.29910156 299.77405762 112.83691406 298.89990234 C112.43746582 298.130896 112.03801758 297.36188965 111.62646484 296.56958008 C110.63434084 294.61906822 110.63434084 294.61906822 108.51660156 293.77880859 C108.39285156 293.09818359 108.26910156 292.41755859 108.14160156 291.71630859 C107.30192218 287.76981552 105.78693174 284.12950278 103.51660156 280.77880859 C102.52660156 280.44880859 101.53660156 280.11880859 100.51660156 279.77880859 C100.43410156 278.95380859 100.35160156 278.12880859 100.26660156 277.27880859 C99.47222267 273.57170709 98.15475107 270.81541054 96.35644531 267.51318359 C95.51660156 265.77880859 95.51660156 265.77880859 95.51660156 263.77880859 C94.52660156 263.44880859 93.53660156 263.11880859 92.51660156 262.77880859 C92.51660156 261.78880859 92.51660156 260.79880859 92.51660156 259.77880859 C91.68015487 257.78365701 91.68015487 257.78365701 90.50488281 255.68115234 C90.07884766 254.88378662 89.6528125 254.0864209 89.21386719 253.26489258 C88.75689453 252.42385986 88.29992187 251.58282715 87.82910156 250.71630859 C86.90766942 248.99801908 85.98708812 247.27927301 85.06738281 245.56005859 C84.62475098 244.73505859 84.18211914 243.91005859 83.72607422 243.06005859 C81.88109264 239.58014178 80.15263865 236.04684207 78.45410156 232.49365234 C77.52079824 230.5955066 77.52079824 230.5955066 75.51660156 228.77880859 C74.85842874 227.53729943 74.24812811 226.27001316 73.66894531 224.98974609 C73.13901978 223.83696167 73.13901978 223.83696167 72.59838867 222.66088867 C72.22077393 221.83355225 71.84315918 221.00621582 71.45410156 220.15380859 C68.19071943 213.12350558 64.68760451 206.33423889 60.81860352 199.62109375 C58.26122592 195.16273029 55.90138468 190.64457257 53.64160156 186.02880859 C50.46768819 179.56457518 47.10208863 173.21922573 43.64160156 166.90380859 C43.16480957 166.02885742 42.68801758 165.15390625 42.19677734 164.25244141 C41.74802246 163.4387207 41.29926758 162.625 40.83691406 161.78662109 C40.43746582 161.06104004 40.03801758 160.33545898 39.62646484 159.58789062 C38.52021757 157.62712157 38.52021757 157.62712157 36.51660156 155.77880859 C36.22785156 154.87130859 35.93910156 153.96380859 35.64160156 153.02880859 C34.11486653 148.61824073 31.66678515 145.21653808 28.76660156 141.59130859 C27.51660156 139.77880859 27.51660156 139.77880859 27.51660156 136.77880859 C26.1971869 134.24846447 24.8353505 131.79889395 23.39160156 129.34130859 C19.90486225 123.3139562 16.7186147 117.26739268 13.80566406 110.93896484 C12.64426476 108.45880228 12.64426476 108.45880228 9.51660156 107.77880859 C10.17660156 107.44880859 10.83660156 107.11880859 11.51660156 106.77880859 C8.05903635 100.14210975 4.59757425 93.50745643 1.1328125 86.87451172 C0.11949686 84.93359899 -0.89300109 82.99225889 -1.90429688 81.05029297 C-6.03669854 73.11534874 -10.17869704 65.20463561 -14.67089844 57.46630859 C-17.88409134 51.91391126 -20.79473768 46.26533725 -23.61621094 40.50537109 C-24.97299104 37.76060346 -26.39482591 35.05831009 -27.85058594 32.36474609 C-28.25607666 31.61298096 -28.66156738 30.86121582 -29.0793457 30.08666992 C-29.86842304 28.63028937 -30.66287017 27.1768005 -31.46362305 25.72680664 C-34.91396686 19.34523788 -37.2735607 13.1536564 -36.48339844 5.77880859 C-34.49749105 0.41911537 -31.51186758 -2.43948507 -26.48339844 -5.22119141 C-16.89910705 -8.4159552 -8.5722386 -4.21533007 0 0 Z " fill="#5D48EE" transform="translate(334.4833984375,488.22119140625)"/>
<path d="M0 0 C11.80854736 11.51562215 20.2977476 25.12592101 23.51953125 41.45703125 C23.74640625 42.55015625 23.97328125 43.64328125 24.20703125 44.76953125 C25.94542584 65.28258743 20.98348573 83.83842527 8.51953125 100.45703125 C2.30257579 107.52392379 -4.43996886 113.55554251 -12.48046875 118.45703125 C-13.23457031 118.91722656 -13.98867188 119.37742187 -14.765625 119.8515625 C-31.41142922 129.04982827 -51.36571389 130.25471964 -69.48046875 125.45703125 C-82.23354695 121.70466534 -93.2646289 115.07222416 -102.48046875 105.45703125 C-103.06570313 104.85761719 -103.6509375 104.25820313 -104.25390625 103.640625 C-116.48046875 90.31068979 -116.48046875 90.31068979 -116.48046875 83.45703125 C-117.47046875 83.45703125 -118.46046875 83.45703125 -119.48046875 83.45703125 C-119.67578125 81.40625 -119.87109375 79.35546875 -120.06640625 77.3046875 C-120.41641427 74.89755689 -120.91478166 72.65710603 -121.49609375 70.30078125 C-125.65755438 51.92384712 -122.29716483 32.13906431 -112.8203125 16.00390625 C-109.11887121 10.14156321 -104.42821393 5.2738067 -99.48046875 0.45703125 C-98.78953125 -0.23132813 -98.09859375 -0.9196875 -97.38671875 -1.62890625 C-87.71290937 -10.70801423 -74.46817694 -16.32442785 -61.48046875 -18.54296875 C-60.45566406 -18.72859375 -60.45566406 -18.72859375 -59.41015625 -18.91796875 C-38.3949015 -22.01985137 -15.78783957 -13.89424561 0 0 Z " fill="#5F4AF0" transform="translate(560.48046875,402.54296875)"/>
<path d="M0 0 C0.5657373 0.21817383 1.13147461 0.43634766 1.71435547 0.66113281 C0.55159505 1.39550781 -0.61116536 2.12988281 -1.77392578 2.86425781 C-2.9125708 3.58343384 -2.9125708 3.58343384 -4.07421875 4.31713867 C-5.78280056 5.39619948 -7.49146173 6.47513463 -9.20019531 7.55395508 C-13.48179332 10.25740248 -17.76243981 12.96230987 -22.03955078 15.67285156 C-23.57985886 16.64820123 -25.12022328 17.6234619 -26.66064453 18.59863281 C-27.43045654 19.0864624 -28.20026855 19.57429199 -28.9934082 20.0769043 C-33.25393882 22.76995985 -37.53154394 25.43152798 -41.83251953 28.05957031 C-42.76273926 28.6294165 -43.69295898 29.1992627 -44.65136719 29.78637695 C-46.4294101 30.87362298 -48.21014216 31.95648949 -49.99414062 33.03393555 C-55.09473585 36.1550832 -59.77813498 39.51335785 -64.37109375 43.34741211 C-66.28564453 44.66113281 -66.28564453 44.66113281 -69.28564453 44.66113281 C-65.12194627 38.89131195 -60.11767973 35.66395954 -54.09814453 31.97363281 C-53.1178125 31.36132812 -52.13748047 30.74902344 -51.12744141 30.11816406 C-48.18762708 28.28674177 -45.23892343 26.47074746 -42.28564453 24.66113281 C-41.48304199 24.16919434 -40.68043945 23.67725586 -39.85351562 23.17041016 C-36.95561804 21.39761579 -34.0571009 19.62619142 -31.14770508 17.87231445 C-26.84984403 15.2716734 -22.61921026 12.58817973 -18.41845703 9.83300781 C-17.42072266 9.18267578 -16.42298828 8.53234375 -15.39501953 7.86230469 C-13.43754379 6.58251525 -11.4867312 5.29246333 -9.54345703 3.99121094 C-8.65658203 3.41306641 -7.76970703 2.83492188 -6.85595703 2.23925781 C-5.67670654 1.45663574 -5.67670654 1.45663574 -4.47363281 0.65820312 C-2.28564453 -0.33886719 -2.28564453 -0.33886719 0 0 Z " fill="#5844DD" transform="translate(293.28564453125,298.3388671875)"/>
<path d="M0 0 C0.66 0.33 1.32 0.66 2 1 C-0.99106707 4.23812608 -4.06752595 6.43342121 -7.84765625 8.6875 C-8.41257782 9.02699677 -8.97749939 9.36649353 -9.55953979 9.71627808 C-10.76671011 10.44108359 -11.97541416 11.16333983 -13.18551636 11.88323975 C-16.35204845 13.7672504 -19.50745281 15.66974062 -22.6640625 17.5703125 C-23.29193161 17.94769562 -23.91980072 18.32507874 -24.56669617 18.71389771 C-31.56142595 22.92513912 -38.45459215 27.29245573 -45.33984375 31.6796875 C-45.97776855 32.08155273 -46.61569336 32.48341797 -47.27294922 32.89746094 C-48.78574787 33.8632227 -50.27229588 34.86985335 -51.75390625 35.8828125 C-54.43757966 37.21764832 -55.23297958 36.84786998 -58 36 C-46.08748477 28.59678401 -34.14650494 21.24465214 -22.14550781 13.9855957 C-15.47285736 9.93647359 -8.92029981 5.74239758 -2.44921875 1.37890625 C-1.64097656 0.92386719 -0.83273437 0.46882812 0 0 Z " fill="#5D49E0" transform="translate(437,208)"/>
<path d="M0 0 C2.87677781 0.61282353 5.14616931 1.49563064 7.6875 2.96875 C8.38069336 3.37053467 9.07388672 3.77231934 9.78808594 4.1862793 C10.51801758 4.61980713 11.24794922 5.05333496 12 5.5 C13.12970215 6.17059448 13.12970215 6.17059448 14.28222656 6.85473633 C35.61221775 19.70852834 35.61221775 19.70852834 38.80078125 29.4453125 C40.03909263 34.53530408 40.31262805 38.11778522 38 43 C37.34 43 36.68 43 36 43 C36.04640625 42.2265625 36.0928125 41.453125 36.140625 40.65625 C36.37525017 33.88563793 36.33005202 28.45586555 32 23 C29.55202103 20.63198014 26.8592699 18.83999313 24 17 C22.9171875 16.28714844 21.834375 15.57429688 20.71875 14.83984375 C14.48389515 10.76558216 8.18393909 6.85299457 1.6953125 3.19140625 C1.13585937 2.79824219 0.57640625 2.40507812 0 2 C0 1.34 0 0.68 0 0 Z " fill="#5D48DC" transform="translate(769,323)"/>
<path d="M0 0 C0.66 0 1.32 0 2 0 C2.3403125 0.67804687 2.680625 1.35609375 3.03125 2.0546875 C11.01853397 17.39197215 21.22373147 26.88185715 37 34 C37 34.33 37 34.66 37 35 C25.01348047 33.80134805 16.09428707 26.06782768 8.625 17 C0 5.6242284 0 5.6242284 0 0 Z " fill="#5E48D7" transform="translate(451,791)"/>
<path d="M0 0 C0.66 0 1.32 0 2 0 C0.79618552 2.49361571 -0.45428722 4.68143083 -2 7 C-4.05717698 15.74300217 -1.02727427 22.55197339 3 30.125 C5.3965244 34.6836062 7.51653944 39.03967876 9 44 C8.34 44 7.68 44 7 44 C5.19734327 40.65163037 3.40990865 37.29535939 1.625 33.9375 C0.86316406 32.52307617 0.86316406 32.52307617 0.0859375 31.08007812 C-3.73821615 23.85947222 -6.89869218 17.38779372 -6 9 C-4.52064574 5.55980354 -2.661042 2.661042 0 0 Z " fill="#5B45DC" transform="translate(304,485)"/>
<path d="M0 0 C0.66 0 1.32 0 2 0 C3.16360099 1.18903489 4.32562699 2.37965835 5.47900391 3.57861328 C8.23714054 6.15612074 11.46699831 7.99438273 14.6875 9.9375 C15.74227539 10.58501221 15.74227539 10.58501221 16.81835938 11.24560547 C18.87428061 12.50488078 20.93591706 13.75415835 23 15 C24.07894531 15.65355469 25.15789062 16.30710937 26.26953125 16.98046875 C28.50816129 18.32877096 30.75057523 19.66981131 33 21 C30.77480676 21.75155533 29.45111607 22.14006816 27.17578125 21.43359375 C21.88304391 18.60414297 16.90047441 15.46452145 12 12 C10.93136719 11.2471875 9.86273438 10.494375 8.76171875 9.71875 C7.65247028 8.9182932 6.54438777 8.11621807 5.4375 7.3125 C4.40496094 6.56613281 3.37242187 5.81976563 2.30859375 5.05078125 C1.54675781 4.37402344 0.78492188 3.69726562 0 3 C0 2.01 0 1.02 0 0 Z " fill="#5B45DD" transform="translate(221,369)"/>
<path d="M0 0 C10.89 0 21.78 0 33 0 C31.68 0.33 30.36 0.66 29 1 C28.67 1.99 28.34 2.98 28 4 C8.23984545 4.2041807 8.23984545 4.2041807 2 3 C1.34 2.01 0.68 1.02 0 0 Z " fill="#5841D7" transform="translate(496,828)"/>
<path d="M0 0 C0.33 0.66 0.66 1.32 1 2 C0.04863374 3.90273252 -0.90727585 5.80333461 -1.88647461 7.69189453 C-5.88702953 15.98420898 -6.63575599 24.54400222 -7.1875 33.625 C-7.26935547 34.81996094 -7.35121094 36.01492188 -7.43554688 37.24609375 C-7.63393341 40.16354276 -7.82185625 43.08125702 -8 46 C-8.33 46 -8.66 46 -9 46 C-9.11789773 41.75024041 -9.18781321 37.50091095 -9.25 33.25 C-9.28351563 32.06277344 -9.31703125 30.87554687 -9.3515625 29.65234375 C-9.46428284 19.33843281 -7.30587564 9.92351812 -2 1 C-1.34 0.67 -0.68 0.34 0 0 Z " fill="#4E37DE" transform="translate(448,421)"/>
<path d="M0 0 C2.91879349 3.62525306 5.11886011 7.57190102 7.375 11.625 C7.77058105 12.33414551 8.16616211 13.04329102 8.57373047 13.77392578 C15.81186942 26.81799512 15.81186942 26.81799512 17 30 C16.67 30.66 16.34 31.32 16 32 C13.8164423 29.97495127 12.38228761 28.12529414 11.0625 25.4609375 C10.72476562 24.79835938 10.38703125 24.13578125 10.0390625 23.453125 C9.34322741 22.06145482 8.65054362 20.66820477 7.9609375 19.2734375 C5.98647481 15.06506351 5.98647481 15.06506351 2 13 C2.66 12.67 3.32 12.34 4 12 C3.566875 11.20335937 3.566875 11.20335937 3.125 10.390625 C2.75375 9.68421875 2.3825 8.9778125 2 8.25 C1.62875 7.55390625 1.2575 6.8578125 0.875 6.140625 C0 4 0 4 0 0 Z " fill="#5943DE" transform="translate(342,583)"/>
<path d="M0 0 C4.02813922 1.34271307 4.39893105 3.01808852 6.390625 6.71484375 C7.01710938 7.87564453 7.64359375 9.03644531 8.2890625 10.23242188 C8.77101074 11.14399048 8.77101074 11.14399048 9.26269531 12.07397461 C10.24795517 13.93364041 11.25160638 15.78245971 12.2578125 17.63085938 C15.86674043 24.38075259 15.86674043 24.38075259 17 27 C16.67 27.66 16.34 28.32 16 29 C11.99086451 26.59451871 11.36695979 24.35718434 10 20 C8.21940694 17.12807571 6.35999127 14.44998909 4.25 11.8125 C3 10 3 10 3 7 C2.01810813 5.32260138 1.01866229 3.65532623 0 2 C0 1.34 0 0.68 0 0 Z " fill="#5E4ADD" transform="translate(359,618)"/>
<path d="M0 0 C4.16396935 6.24595403 3.13601111 14.77359025 3.0625 22.0625 C3.05798828 22.92810547 3.05347656 23.79371094 3.04882812 24.68554688 C3.03719913 26.79039539 3.01927073 28.89520758 3 31 C1.51831055 29.90112305 1.51831055 29.90112305 0 28 C-0.34057617 25.08911133 -0.34057617 25.08911133 -0.29296875 21.58203125 C-0.28330078 20.32841797 -0.27363281 19.07480469 -0.26367188 17.78320312 C-0.23853516 16.47287109 -0.21339844 15.16253906 -0.1875 13.8125 C-0.17244967 12.47722837 -0.15876187 11.14194063 -0.14648438 9.80664062 C-0.11107694 6.53735424 -0.0616889 3.26887907 0 0 Z " fill="#5944DE" transform="translate(619,430)"/>
<path d="M0 0 C0.62382568 0.1858667 1.24765137 0.3717334 1.89038086 0.56323242 C0.97256836 1.3134668 0.05475586 2.06370117 -0.89086914 2.83666992 C-8.19206253 8.89481077 -14.57658619 14.79636629 -20.10961914 22.56323242 C-20.91821289 20.92651367 -20.91821289 20.92651367 -21.10961914 18.56323242 C-19.5319876 16.40804791 -18.02705412 14.6396373 -16.17211914 12.75073242 C-15.66865967 12.22390869 -15.1652002 11.69708496 -14.64648438 11.15429688 C-13.15105681 9.60613143 -11.63570206 8.0811326 -10.10961914 6.56323242 C-9.32586914 5.77948242 -8.54211914 4.99573242 -7.73461914 4.18823242 C-2.6845263 -0.55579418 -2.6845263 -0.55579418 0 0 Z " fill="#5E49E0" transform="translate(471.109619140625,396.436767578125)"/>
<path d="M0 0 C0.33 0 0.66 0 1 0 C1 9.57 1 19.14 1 29 C-0.98 29.99 -0.98 29.99 -3 31 C-2.8453125 30.06671875 -2.690625 29.1334375 -2.53125 28.171875 C-1.68856083 22.27898522 -1.61339075 16.32834881 -1.39453125 10.38671875 C-1.35714844 9.48050781 -1.31976563 8.57429688 -1.28125 7.640625 C-1.25095703 6.82110352 -1.22066406 6.00158203 -1.18945312 5.15722656 C-1 3 -1 3 0 0 Z " fill="#533DDE" transform="translate(402,432)"/>
<path d="M0 0 C4.37788832 2.99539727 5.39466345 5.06004892 7 10 C8.76898059 13.40588796 10.65085358 16.73324501 12.5390625 20.07421875 C14 23 14 23 14 26 C13.34 26 12.68 26 12 26 C9.99001941 22.23440472 7.99375237 18.46170916 6 14.6875 C5.42765625 13.61564453 4.8553125 12.54378906 4.265625 11.43945312 C3.45351563 9.89741211 3.45351563 9.89741211 2.625 8.32421875 C2.12226563 7.37635498 1.61953125 6.42849121 1.1015625 5.4519043 C0 3 0 3 0 0 Z " fill="#5B45E0" transform="translate(323,548)"/>
<path d="M0 0 C2.23908606 2.06477168 3.65110966 3.94929158 4.97265625 6.6875 C5.48602539 7.73550781 5.48602539 7.73550781 6.00976562 8.8046875 C6.53086914 9.89136719 6.53086914 9.89136719 7.0625 11 C7.75992973 12.43836883 8.45908588 13.87590213 9.16015625 15.3125 C9.46574463 15.94800781 9.77133301 16.58351563 10.08618164 17.23828125 C11.09321783 19.25821539 11.09321783 19.25821539 13 22 C13 22.99 13 23.98 13 25 C12.34 25 11.68 25 11 25 C10.74605469 24.43410156 10.49210937 23.86820313 10.23046875 23.28515625 C9.88628906 22.55167969 9.54210937 21.81820312 9.1875 21.0625 C8.85105469 20.33160156 8.51460938 19.60070312 8.16796875 18.84765625 C7.06399866 16.66970511 7.06399866 16.66970511 4 16 C3.896875 15.13375 3.79375 14.2675 3.6875 13.375 C3.14049226 9.94285634 3.14049226 9.94285634 1.4375 6.875 C0 4 0 4 0 0 Z " fill="#5C46D8" transform="translate(431,752)"/>
<path d="M0 0 C5.70323584 1.62682465 10.68013903 4.33197987 15.875 7.125 C16.75414062 7.59292969 17.63328125 8.06085938 18.5390625 8.54296875 C20.69494271 9.6912093 22.84846777 10.84363903 25 12 C25 12.33 25 12.66 25 13 C18.89222878 12.53017144 14.4691236 10.53662596 9.125 7.625 C8.35414063 7.22539062 7.58328125 6.82578125 6.7890625 6.4140625 C1.12808036 3.38424107 1.12808036 3.38424107 0 0 Z " fill="#5D48E3" transform="translate(360,451)"/>
<path d="M0 0 C6.63950694 6.01705316 12.508624 13.32490099 15 22 C11.2887953 20.76293177 11.03939115 19.77906668 9.1875 16.4375 C6.78111579 12.22783539 4.16066222 8.44860822 1.1015625 4.69140625 C0 3 0 3 0 0 Z " fill="#553EDB" transform="translate(594,379)"/>
<path d="M0 0 C8.47390134 2.53343442 16.14732914 7.3400642 22 14 C17.83973439 13.45123056 15.40314289 12.12652406 12.0625 9.625 C9.19373201 7.5269458 6.64238209 5.82432804 3.4375 4.25 C1 3 1 3 0 0 Z " fill="#5942DE" transform="translate(557,351)"/>
<path d="M0 0 C0.66 0.33 1.32 0.66 2 1 C-0.77102623 4.20748823 -4.31324578 6.15548776 -7.9375 8.25 C-8.55818359 8.62640625 -9.17886719 9.0028125 -9.81835938 9.390625 C-14.48476892 12.09406141 -14.48476892 12.09406141 -17.20922852 11.59667969 C-17.80018311 11.39977539 -18.3911377 11.20287109 -19 11 C-15.88258808 9.13284182 -12.7549542 7.28354339 -9.625 5.4375 C-8.73554687 4.90447266 -7.84609375 4.37144531 -6.9296875 3.82226562 C-6.07890625 3.32275391 -5.228125 2.82324219 -4.3515625 2.30859375 C-3.56604004 1.84251709 -2.78051758 1.37644043 -1.97119141 0.89624023 C-1.32069824 0.60048096 -0.67020508 0.30472168 0 0 Z " fill="#5843DC" transform="translate(778,385)"/>
<path d="M0 0 C7.31506638 0.87729191 11.81125173 6.65491257 16.625 11.8125 C17.07875 12.534375 17.5325 13.25625 18 14 C17.67 14.99 17.34 15.98 17 17 C16.29037109 16.14728516 16.29037109 16.14728516 15.56640625 15.27734375 C11.30995617 10.30733674 6.97533666 6.17119161 1.6875 2.3125 C1.130625 1.879375 0.57375 1.44625 0 1 C0 0.67 0 0.34 0 0 Z " fill="#5C46E3" transform="translate(550,397)"/>
<path d="M0 0 C1.73540039 0.07250977 1.73540039 0.07250977 3.50585938 0.14648438 C4.70404297 0.20255859 5.90222656 0.25863281 7.13671875 0.31640625 C8.35423828 0.36861328 9.57175781 0.42082031 10.82617188 0.47460938 C13.82579854 0.60400504 16.82506881 0.73896073 19.82421875 0.87890625 C19.82421875 1.20890625 19.82421875 1.53890625 19.82421875 1.87890625 C-2.77067158 3.07279028 -2.77067158 3.07279028 -13.17578125 2.87890625 C-9.49981168 -0.79706332 -4.94342685 -0.21916671 0 0 Z " fill="#6E5BE6" transform="translate(501.17578125,340.12109375)"/>
<path d="M0 0 C4.96082294 0.55761188 8.57323415 2.83192098 12.75 5.375 C13.43449219 5.77460938 14.11898437 6.17421875 14.82421875 6.5859375 C19.87558707 9.6267612 19.87558707 9.6267612 21 13 C16.13752978 11.32163257 12.00929388 8.66807039 7.6875 5.9375 C6.94693359 5.47794922 6.20636719 5.01839844 5.44335938 4.54492188 C3.60937791 3.39382383 1.8019624 2.20060244 0 1 C0 0.67 0 0.34 0 0 Z " fill="#5A46DE" transform="translate(747,310)"/>
<path d="M0 0 C0.66 0.33 1.32 0.66 2 1 C-1.02651193 4.17090332 -4.39591928 6.38518598 -8.0625 8.75 C-8.69994141 9.17410156 -9.33738281 9.59820312 -9.99414062 10.03515625 C-11.6223883 11.08862735 -13.30799645 12.05231028 -15 13 C-15.66 12.67 -16.32 12.34 -17 12 C-13.84679051 8.55942906 -10.33207412 6.10325842 -6.375 3.6875 C-5.49714844 3.1296582 -5.49714844 3.1296582 -4.6015625 2.56054688 C-3.10691202 1.64010271 -1.55636473 0.81174279 0 0 Z " fill="#5744DE" transform="translate(486,178)"/>
<path d="M0 0 C0.33 0.99 0.66 1.98 1 3 C-0.4765625 5.4453125 -0.4765625 5.4453125 -2.625 8.125 C-3.31851563 9.01445313 -4.01203125 9.90390625 -4.7265625 10.8203125 C-7.22585465 13.21654105 -8.60405157 13.70210979 -12 14 C-10.625 12 -10.625 12 -9 10 C-8.34 10 -7.68 10 -7 10 C-6.773125 9.46375 -6.54625 8.9275 -6.3125 8.375 C-4.56617944 5.21499137 -2.3597151 2.7323017 0 0 Z " fill="#553FD2" transform="translate(566,801)"/>
<path d="M0 0 C0 0.66 0 1.32 0 2 C-2.484375 3.76171875 -2.484375 3.76171875 -5.75 5.6875 C-6.81734375 6.33074219 -7.8846875 6.97398437 -8.984375 7.63671875 C-12 9 -12 9 -14.390625 8.70703125 C-14.92171875 8.47371094 -15.4528125 8.24039062 -16 8 C-14.60823368 7.03576974 -13.2113777 6.07888398 -11.8125 5.125 C-11.03519531 4.59132813 -10.25789062 4.05765625 -9.45703125 3.5078125 C-6.45442526 1.66519579 -3.58155906 0 0 0 Z " fill="#5740DD" transform="translate(743,406)"/>
<path d="M0 0 C0.33 0 0.66 0 1 0 C1.35924883 4.37485237 0.30172228 6.94337109 -1.8125 10.75 C-2.33457031 11.71421875 -2.85664062 12.6784375 -3.39453125 13.671875 C-5 16 -5 16 -8 17 C-6.3341708 10.83643195 -3.12194714 5.51740344 0 0 Z " fill="#513AD7" transform="translate(612,714)"/>
<path d="M0 0 C1.21236328 0.01353516 1.21236328 0.01353516 2.44921875 0.02734375 C3.37154297 0.04474609 3.37154297 0.04474609 4.3125 0.0625 C4.3125 1.0525 4.3125 2.0425 4.3125 3.0625 C-2.1225 3.5575 -2.1225 3.5575 -8.6875 4.0625 C-8.3575 3.0725 -8.0275 2.0825 -7.6875 1.0625 C-4.80538698 0.10179566 -2.98899956 -0.04331883 0 0 Z " fill="#634DE6" transform="translate(708.6875,481.9375)"/>
<path d="M0 0 C5.74346134 1.20914976 10.11265093 2.70852001 15 6 C15.33 6.99 15.66 7.98 16 9 C14.32986582 8.34206835 12.6642135 7.67276716 11 7 C10.08154297 6.63841797 10.08154297 6.63841797 9.14453125 6.26953125 C4.11287193 4.22574386 4.11287193 4.22574386 3 2 C2.01 1.67 1.02 1.34 0 1 C0 0.67 0 0.34 0 0 Z " fill="#6852E5" transform="translate(345,444)"/>
<path d="M0 0 C0.66 0.33 1.32 0.66 2 1 C-1.36132396 4.65791137 -4.329378 7.21125115 -9 9 C-11.18359375 8.5703125 -11.18359375 8.5703125 -13 8 C-12.14535156 7.50628906 -11.29070313 7.01257813 -10.41015625 6.50390625 C-9.30542969 5.86324219 -8.20070313 5.22257813 -7.0625 4.5625 C-5.96035156 3.92441406 -4.85820313 3.28632812 -3.72265625 2.62890625 C-1.1716429 1.25289773 -1.1716429 1.25289773 0 0 Z " fill="#4E37D0" transform="translate(551,816)"/>
<path d="M0 0 C2.14909962 2.76854598 4.01778828 5.57834526 5.75 8.625 C6.19859375 9.40101563 6.6471875 10.17703125 7.109375 10.9765625 C7.40328125 11.64429688 7.6971875 12.31203125 8 13 C7.67 13.66 7.34 14.32 7 15 C4.63950749 12.85409771 3.38096396 10.85399218 2 8 C1.34 7.34 0.68 6.68 0 6 C-0.125 2.875 -0.125 2.875 0 0 Z " fill="#5641D6" transform="translate(410,711)"/>
<path d="M0 0 C0.66 0 1.32 0 2 0 C0.79618552 2.49361571 -0.45428722 4.68143083 -2 7 C-2.144375 7.804375 -2.28875 8.60875 -2.4375 9.4375 C-3.06519273 12.29698912 -4.12058431 13.7937294 -6 16 C-6.50126942 9.85944957 -5.31436435 6.97154653 -2 2 C-1.34 1.34 -0.68 0.68 0 0 Z " fill="#6B58E2" transform="translate(304,485)"/>
<path d="M0 0 C0.33 0 0.66 0 1 0 C1.35796233 4.31889337 0.3887032 6.65699842 -1.875 10.3125 C-2.40867187 11.19550781 -2.94234375 12.07851563 -3.4921875 12.98828125 C-3.98976563 13.65214844 -4.48734375 14.31601562 -5 15 C-5.66 15 -6.32 15 -7 15 C-5.45454854 9.52067211 -2.84456788 4.88570819 0 0 Z " fill="#543EDB" transform="translate(694,557)"/>
<path d="M0 0 C5.31027254 1.46032495 9.46330032 3.98320986 14 7 C11.40927388 7.97226335 10.30300917 8.11611108 7.67578125 7.109375 C6.89589844 6.66078125 6.11601562 6.2121875 5.3125 5.75 C4.52488281 5.31171875 3.73726563 4.8734375 2.92578125 4.421875 C1 3 1 3 0 0 Z " fill="#5740DD" transform="translate(257,393)"/>
<path d="M0 0 C-4.51368168 3.81926912 -9.09749318 5.34720628 -15 5 C-11.52013327 -0.2198001 -5.92840631 -0.28919055 0 0 Z " fill="#624CD9" transform="translate(540,825)"/>
<path d="M0 0 C0.66 0.33 1.32 0.66 2 1 C-0.81332973 4.30979968 -4.141943 6.1048141 -8 8 C-10.22265625 7.609375 -10.22265625 7.609375 -12 7 C-10.04754815 5.80285445 -8.08785003 4.61751926 -6.125 3.4375 C-5.03445313 2.77621094 -3.94390625 2.11492187 -2.8203125 1.43359375 C-1.88960937 0.96050781 -0.95890625 0.48742187 0 0 Z " fill="#5741DF" transform="translate(650,456)"/>
<path d="M0 0 C-1.72526042 0.71614583 -3.45052083 1.43229167 -5.17578125 2.1484375 C-7.26533932 3.06806692 -7.26533932 3.06806692 -10 5 C-12.32387947 5.39387788 -14.65793749 5.73486085 -17 6 C-15.43419334 2.86838668 -12.82184478 2.54395566 -9.625 1.3125 C-8.46226562 0.85488281 -7.29953125 0.39726562 -6.1015625 -0.07421875 C-3 -1 -3 -1 0 0 Z " fill="#6B58E7" transform="translate(493,387)"/>
<path d="M0 0 C0.33 0.66 0.66 1.32 1 2 C-0.21484375 4.8203125 -0.21484375 4.8203125 -1.9375 8.125 C-2.50339844 9.22070312 -3.06929687 10.31640625 -3.65234375 11.4453125 C-4.09707031 12.28835938 -4.54179688 13.13140625 -5 14 C-5.33 14 -5.66 14 -6 14 C-5.50437849 9.04378488 -4.55784896 5.29718625 -2 1 C-1.34 0.67 -0.68 0.34 0 0 Z " fill="#614CDB" transform="translate(605,730)"/>
<path d="M0 0 C0.33 0 0.66 0 1 0 C1.6175196 5.09453672 -0.22939021 7.88366546 -3 12 C-3.99 12.33 -4.98 12.66 -6 13 C-5.53802187 8.84219686 -5.14081415 6.76391645 -2 4 C-0.82425289 1.90010348 -0.82425289 1.90010348 0 0 Z " fill="#513AD4" transform="translate(575,785)"/>
<path d="M0 0 C4.77923358 0.57930104 8.02129144 2.39853671 12 5 C12.33 5.99 12.66 6.98 13 8 C8.27626146 6.37621488 4.05818166 3.89006982 0 1 C0 0.67 0 0.34 0 0 Z " fill="#5942E1" transform="translate(604,222)"/>
<path d="M0 0 C0.433125 0.598125 0.86625 1.19625 1.3125 1.8125 C2.86519202 3.98347765 2.86519202 3.98347765 4.625 5.375 C6.60571497 7.71584497 6.66820631 10.01385679 7 13 C4 12 4 12 2.83203125 10.29296875 C2.49558594 9.59816406 2.15914063 8.90335938 1.8125 8.1875 C1.46832031 7.50042969 1.12414062 6.81335938 0.76953125 6.10546875 C0 4 0 4 0 0 Z " fill="#523DDB" transform="translate(390,673)"/>
<path d="M0 0 C0.33 0 0.66 0 1 0 C1.08112454 2.58396679 1.14054748 5.16537568 1.1875 7.75 C1.21263672 8.47960937 1.23777344 9.20921875 1.26367188 9.9609375 C1.30981636 13.34486604 1.25324128 15.57858557 -0.51171875 18.515625 C-1.00285156 19.00546875 -1.49398437 19.4953125 -2 20 C-1.33333333 13.33333333 -0.66666667 6.66666667 0 0 Z " fill="#412AD0" transform="translate(583,454)"/>
<path d="M0 0 C3.63 0.33 7.26 0.66 11 1 C11 1.66 11 2.32 11 3 C4.6 4.23076923 4.6 4.23076923 1.5625 3.0625 C1.046875 2.711875 0.53125 2.36125 0 2 C0 1.34 0 0.68 0 0 Z " fill="#5E45E1" transform="translate(386,464)"/>
<path d="M0 0 C0.66 0.33 1.32 0.66 2 1 C-0.74559948 3.94897721 -3.34117274 6.26205705 -7 8 C-9.15625 7.57421875 -9.15625 7.57421875 -11 7 C-9.21475351 5.80286983 -7.4215972 4.61752721 -5.625 3.4375 C-4.62726563 2.77621094 -3.62953125 2.11492187 -2.6015625 1.43359375 C-1.74304688 0.96050781 -0.88453125 0.48742187 0 0 Z " fill="#6754DF" transform="translate(403,229)"/>
<path d="M0 0 C1.06528748 2.73019786 1.07998186 3.79298812 0.00390625 6.578125 C-0.47175781 7.45984375 -0.94742188 8.3415625 -1.4375 9.25 C-1.91058594 10.14203125 -2.38367188 11.0340625 -2.87109375 11.953125 C-3.24363281 12.62859375 -3.61617187 13.3040625 -4 14 C-4.66 14 -5.32 14 -6 14 C-5.31113213 10.61108678 -4.01283514 7.81988387 -2.4375 4.75 C-1.75494141 3.41195312 -1.75494141 3.41195312 -1.05859375 2.046875 C-0.70925781 1.37140625 -0.35992188 0.6959375 0 0 Z " fill="#523CDC" transform="translate(682,580)"/>
<path d="M0 0 C0.66 0 1.32 0 2 0 C5.22265625 5.17578125 5.22265625 5.17578125 6 7 C5.67 7.99 5.34 8.98 5 10 C4 9 3 8 2 7 C1.13375 6.2884375 1.13375 6.2884375 0.25 5.5625 C-0.1625 5.046875 -0.575 4.53125 -1 4 C-0.6875 1.8125 -0.6875 1.8125 0 0 Z " fill="#5D46D7" transform="translate(444,778)"/>
<path d="M0 0 C0.99 0.33 1.98 0.66 3 1 C2.07265428 2.48555383 1.13275187 3.96327506 0.1875 5.4375 C-0.33457031 6.26121094 -0.85664063 7.08492188 -1.39453125 7.93359375 C-3 10 -3 10 -6 11 C-4.54955729 6.89041233 -2.48889248 3.56741255 0 0 Z " fill="#5842DC" transform="translate(421,386)"/>
<path d="M0 0 C4.05281712 1.22527029 7.44360764 2.69880494 11 5 C10.01 5.66 9.02 6.32 8 7 C1.125 3.375 1.125 3.375 0 0 Z " fill="#6A56E8" transform="translate(345,495)"/>
<path d="M0 0 C2.5 1 2.5 1 4 2 C-1.03733166 3.5111995 -5.88171027 2.64599773 -11 2 C-7.29598872 -0.46934085 -4.29412135 -0.44928433 0 0 Z " fill="#7260E5" transform="translate(319,482)"/>
<path d="M0 0 C1.32 0.33 2.64 0.66 4 1 C-0.455 3.97 -0.455 3.97 -5 7 C-5.66 6.67 -6.32 6.34 -7 6 C-4.74259377 3.66475218 -2.7194239 1.81294927 0 0 Z " fill="#5845DE" transform="translate(325,277)"/>
<path d="M0 0 C4.23429756 1.31061591 8.07407404 2.94356259 12 5 C12 5.33 12 5.66 12 6 C7.5428126 5.73781251 5.48477302 5.42288711 2.0625 2.4375 C1.381875 1.633125 0.70125 0.82875 0 0 Z " fill="#523CDD" transform="translate(373,458)"/>
<path d="M0 0 C-1 3 -1 3 -3.8125 4.75 C-7.13982105 6.05483179 -7.79584277 6.02866653 -11 5 C-9.54462432 4.16151196 -8.08559627 3.32936066 -6.625 2.5 C-5.81289063 2.0359375 -5.00078125 1.571875 -4.1640625 1.09375 C-2 0 -2 0 0 0 Z " fill="#5A44DF" transform="translate(680,441)"/>
<path d="M0 0 C1.32 0.33 2.64 0.66 4 1 C-0.455 3.97 -0.455 3.97 -5 7 C-5.66 6.67 -6.32 6.34 -7 6 C-4.74259377 3.66475218 -2.7194239 1.81294927 0 0 Z " fill="#5945DE" transform="translate(304,290)"/>
<path d="M0 0 C1.32 0.33 2.64 0.66 4 1 C-0.455 3.97 -0.455 3.97 -5 7 C-5.66 6.67 -6.32 6.34 -7 6 C-4.74259377 3.66475218 -2.7194239 1.81294927 0 0 Z " fill="#5944E0" transform="translate(372,248)"/>
<path d="M0 0 C3.94876098 0.56410871 6.75634176 1.65735794 10 4 C10.33 4.99 10.66 5.98 11 7 C6.89188572 5.55007731 3.53144334 3.54592427 0 1 C0 0.67 0 0.34 0 0 Z " fill="#5945DE" transform="translate(557,193)"/>
<path d="M0 0 C4.23429756 1.31061591 8.07407404 2.94356259 12 5 C12 5.33 12 5.66 12 6 C5.25 5.125 5.25 5.125 3 4 C3 3.34 3 2.68 3 2 C2.01 1.67 1.02 1.34 0 1 C0 0.67 0 0.34 0 0 Z " fill="#4E35D3" transform="translate(476,820)"/>
<path d="M0 0 C0.75 1.5625 0.75 1.5625 1 4 C-0.13084437 6.50286409 -1.52139516 8.67007722 -3 11 C-3.66 11 -4.32 11 -5 11 C-3.55049545 7.2089881 -1.84827434 3.6125362 0 0 Z " fill="#513AD8" transform="translate(621,697)"/>
<path d="M0 0 C3.72433382 1.2125738 7.37802806 2.50859979 11 4 C9.375 5.125 9.375 5.125 7 6 C3.8125 5.375 3.8125 5.375 1 4 C0.125 1.875 0.125 1.875 0 0 Z " fill="#654FE7" transform="translate(471,563)"/>
<path d="M0 0 C3.25543229 0.34879632 4.01873107 1.02133261 6.25 3.5625 C6.8275 4.366875 7.405 5.17125 8 6 C7.34 7.32 6.68 8.64 6 10 C5.7525 9.278125 5.505 8.55625 5.25 7.8125 C3.89016326 4.75286734 2.17082246 2.5326262 0 0 Z " fill="#5740E1" transform="translate(716,485)"/>
<path d="M0 0 C0.33 0.66 0.66 1.32 1 2 C1.66 2 2.32 2 3 2 C3.66 3.98 4.32 5.96 5 8 C4.34 8.66 3.68 9.32 3 10 C3 9.34 3 8.68 3 8 C2.01 8 1.02 8 0 8 C0 5.36 0 2.72 0 0 Z " fill="#715EE5" transform="translate(441,478)"/>
<path d="M0 0 C3.59391114 1.33488128 6.75490696 2.96022723 10 5 C9.01 5.66 8.02 6.32 7 7 C6.01 6.67 5.02 6.34 4 6 C4.33 5.67 4.66 5.34 5 5 C4.360625 4.731875 3.72125 4.46375 3.0625 4.1875 C1 3 1 3 0 0 Z " fill="#5A43DD" transform="translate(310,423)"/>
<path d="M0 0 C3.36591427 2.72478774 4.44226276 6.06856792 6 10 C5.01 10 4.02 10 3 10 C0.96564469 6.27034861 0 4.33094958 0 0 Z " fill="#523CD4" transform="translate(431,752)"/>
<path d="M0 0 C6.91428571 0.94285714 6.91428571 0.94285714 10 3 C10.33 3.99 10.66 4.98 11 6 C7.2089881 4.55049545 3.6125362 2.84827434 0 1 C0 0.67 0 0.34 0 0 Z " fill="#553EE1" transform="translate(461,559)"/>
<path d="M0 0 C1.32 0.33 2.64 0.66 4 1 C0.04 4.465 0.04 4.465 -4 8 C-4.66 7.67 -5.32 7.34 -6 7 C-4.02 4.69 -2.04 2.38 0 0 Z " fill="#523DE3" transform="translate(469,396)"/>
<path d="M0 0 C3.0916909 2.52956528 3.90931332 5.22454612 5 9 C2.525 8.01 2.525 8.01 0 7 C0 4.69 0 2.38 0 0 Z " fill="#5741D9" transform="translate(371,638)"/>
<path d="M0 0 C0.75 1.6875 0.75 1.6875 1 4 C-0.8125 6.75 -0.8125 6.75 -3 9 C-3.66 9 -4.32 9 -5 9 C-3.7508258 5.54074837 -2.32472205 2.85306797 0 0 Z " fill="#5843E0" transform="translate(573,492)"/>
<path d="M0 0 C3.59391114 1.33488128 6.75490696 2.96022723 10 5 C8.3125 5.6875 8.3125 5.6875 6 6 C3.3125 4.75 3.3125 4.75 1 3 C0.67 2.01 0.34 1.02 0 0 Z " fill="#573FDD" transform="translate(328,433)"/>
<path d="M0 0 C0.66 0.33 1.32 0.66 2 1 C0.06745228 3.0245738 -1.63158688 4.42105792 -4 6 C-6.1875 5.625 -6.1875 5.625 -8 5 C-6.71475739 4.13619741 -5.42157581 3.28419631 -4.125 2.4375 C-3.04605469 1.72400391 -3.04605469 1.72400391 -1.9453125 0.99609375 C-1.30335938 0.66738281 -0.66140625 0.33867187 0 0 Z " fill="#543DDB" transform="translate(753,399)"/>
<path d="M0 0 C-0.66 0 -1.32 0 -2 0 C-2 0.66 -2 1.32 -2 2 C-6.455 2.495 -6.455 2.495 -11 3 C-7.17860188 -0.1390056 -4.83859894 -1.61286631 0 0 Z " fill="#563DDB" transform="translate(483,345)"/>
<path d="M0 0 C0.66 0.33 1.32 0.66 2 1 C-1.07999946 4.67230705 -3.2482602 5.56802365 -8 6 C-5.63404067 3.38499232 -3.13950774 1.61000397 0 0 Z " fill="#604EDC" transform="translate(256,320)"/>
<path d="M0 0 C0.6875 1.625 0.6875 1.625 1 4 C-0.4375 7.25 -0.4375 7.25 -2 10 C-2.66 9.67 -3.32 9.34 -4 9 C-2.94124926 5.59687262 -1.99097846 2.98646769 0 0 Z " fill="#523BD5" transform="translate(583,770)"/>
<path d="M0 0 C2.97 1.65 5.94 3.3 9 5 C5 6 5 6 2.25 4.75 C1.5075 4.1725 0.765 3.595 0 3 C0 2.01 0 1.02 0 0 Z " fill="#563FDE" transform="translate(283,407)"/>
<path d="M0 0 C2.94956528 1.36944102 5.52468811 2.87830409 8 5 C8 5.66 8 6.32 8 7 C4.78448712 6.65548076 3.97940123 5.97711248 1.75 3.5 C0 1 0 1 0 0 Z " fill="#543DDC" transform="translate(580,366)"/>
<path d="M0 0 C3.31562557 0.55260426 6.15062207 1.16825705 9 3 C9.33 3.99 9.66 4.98 10 6 C6.00499382 4.6302836 3.19990508 2.74277578 0 0 Z " fill="#5641DF" transform="translate(711,288)"/>
<path d="M0 0 C0.66 0.33 1.32 0.66 2 1 C0.06745228 3.0245738 -1.63158688 4.42105792 -4 6 C-6.1875 5.625 -6.1875 5.625 -8 5 C-6.71475739 4.13619741 -5.42157581 3.28419631 -4.125 2.4375 C-3.04605469 1.72400391 -3.04605469 1.72400391 -1.9453125 0.99609375 C-1.30335938 0.66738281 -0.66140625 0.33867187 0 0 Z " fill="#6653DE" transform="translate(486,178)"/>
<path d="M0 0 C0.88492145 2.47778006 1.11637742 3.66056586 0.25 6.1875 C-1 8 -1 8 -4 9 C-2.94124926 5.59687262 -1.99097846 2.98646769 0 0 Z " fill="#4F38D5" transform="translate(592,753)"/>
<path d="M0 0 C3.0916909 2.52956528 3.90931332 5.22454612 5 9 C2 8 2 8 0 5 C-0.125 2.3125 -0.125 2.3125 0 0 Z " fill="#533BD8" transform="translate(426,742)"/>
<path d="M0 0 C3.63 0.66 7.26 1.32 11 2 C6.82091936 4.08954032 6.19589427 4.16552619 2 3 C2 2.34 2 1.68 2 1 C1.34 0.67 0.68 0.34 0 0 Z " fill="#6C57E7" transform="translate(485,569)"/>
<path d="M0 0 C0.99 0.66 1.98 1.32 3 2 C0.1875 3.5625 0.1875 3.5625 -3 5 C-3.99 4.67 -4.98 4.34 -6 4 C-5 2 -5 2 -2.625 0.75 C-1.75875 0.5025 -0.8925 0.255 0 0 Z " fill="#6851E5" transform="translate(541,521)"/>
<path d="M0 0 C0.66 0.33 1.32 0.66 2 1 C0.515 3.475 0.515 3.475 -1 6 C-2.32 5.01 -3.64 4.02 -5 3 C-2.625 1.4375 -2.625 1.4375 0 0 Z " fill="#6A55EB" transform="translate(690,488)"/>
<path d="M0 0 C2.2344598 4.03292745 2.54496743 7.44967434 3 12 C0.89366282 10.29171079 0.06198392 9.47851584 -0.29296875 6.73828125 C-0.25816406 5.93777344 -0.22335937 5.13726562 -0.1875 4.3125 C-0.16042969 3.50425781 -0.13335937 2.69601562 -0.10546875 1.86328125 C-0.07066406 1.24839844 -0.03585937 0.63351562 0 0 Z " fill="#4C34DA" transform="translate(440,468)"/>
<path d="M0 0 C2.72869407 0.03287583 5.2966618 0.56397771 8 1 C5.24075815 2.80411967 4.11027897 3.0127245 0.75 2.625 C-0.1575 2.41875 -1.065 2.2125 -2 2 C-1.34 1.34 -0.68 0.68 0 0 Z " fill="#6954E4" transform="translate(628,465)"/>
<path d="M0 0 C0.99 0.33 1.98 0.66 3 1 C1.02579865 3.52259061 0.03254358 3.9929808 -3.1875 4.6875 C-4.5796875 4.8421875 -4.5796875 4.8421875 -6 5 C-5.195625 4.360625 -4.39125 3.72125 -3.5625 3.0625 C-1.7249496 1.59396498 -1.7249496 1.59396498 0 0 Z " fill="#543CDF" transform="translate(664,448)"/>
<path d="M0 0 C0.33 0.99 0.66 1.98 1 3 C-1.25 4.5625 -1.25 4.5625 -4 6 C-5.32 5.67 -6.64 5.34 -8 5 C-4.04 2.525 -4.04 2.525 0 0 Z " fill="#503ADC" transform="translate(699,429)"/>
<path d="M0 0 C-3.53411321 2.12046792 -6.94393835 2.53199289 -11 3 C-10.34 2.67 -9.68 2.34 -9 2 C-9 1.34 -9 0.68 -9 0 C-5.52176885 -1.15941038 -3.54104422 -0.70820884 0 0 Z " fill="#6B56E5" transform="translate(492,343)"/>
<path d="M0 0 C4.40114397 0.50298788 6.71195019 2.08772731 10 5 C5.2482602 4.56802365 3.07999946 3.67230705 0 0 Z " fill="#604CDF" transform="translate(624,234)"/>
<path d="M0 0 C0.66 0 1.32 0 2 0 C1.46930939 3.82097239 0.50298434 6.06171403 -2 9 C-1.125 2.25 -1.125 2.25 0 0 Z " fill="#5F49D8" transform="translate(578,779)"/>
<path d="M0 0 C3.0916909 2.52956528 3.90931332 5.22454612 5 9 C2 8 2 8 0.8125 6.1875 C0 4 0 4 0 0 Z " fill="#513BD9" transform="translate(384,662)"/>
<path d="M0 0 C-5.2734375 3.22265625 -5.2734375 3.22265625 -7 4 C-7.66 3.67 -8.32 3.34 -9 3 C-5.83583464 -0.30799106 -4.50236011 -1.35070803 0 0 Z " fill="#543FE1" transform="translate(677,498)"/>
<path d="M0 0 C2.12038635 2.61514317 4.13091744 5.19637616 6 8 C5.01 8 4.02 8 3 8 C0.19744677 5.0936485 0 4.21174952 0 0 Z " fill="#5842DF" transform="translate(449,493)"/>
<path d="M0 0 C0.53625 0.226875 1.0725 0.45375 1.625 0.6875 C0.635 0.6875 -0.355 0.6875 -1.375 0.6875 C-1.375 1.3475 -1.375 2.0075 -1.375 2.6875 C-3.025 3.3475 -4.675 4.0075 -6.375 4.6875 C-7.035 4.0275 -7.695 3.3675 -8.375 2.6875 C-2.95961538 -0.38942308 -2.95961538 -0.38942308 0 0 Z " fill="#6A57E2" transform="translate(501.375,171.3125)"/>
<path d="M0 0 C0.66 0 1.32 0 2 0 C3.06775224 1.96466413 4.06553465 3.96855359 5 6 C4.67 6.66 4.34 7.32 4 8 C1.10067643 5.60490662 0.49831724 3.68754757 0 0 Z " fill="#4E36D0" transform="translate(451,791)"/>
<path d="M0 0 C2.625 0.6875 2.625 0.6875 5 2 C5.33 2.99 5.66 3.98 6 5 C3.03 4.01 0.06 3.02 -3 2 C-2.01 1.34 -1.02 0.68 0 0 Z " fill="#6A53E5" transform="translate(481,521)"/>
<path d="M0 0 C-5.2734375 3.22265625 -5.2734375 3.22265625 -7 4 C-7.66 3.67 -8.32 3.34 -9 3 C-5.83583464 -0.30799106 -4.50236011 -1.35070803 0 0 Z " fill="#6B57E6" transform="translate(553,518)"/>
<path d="M0 0 C2.4375 0.375 2.4375 0.375 5 1 C5.33 1.66 5.66 2.32 6 3 C3.625 3.625 3.625 3.625 1 4 C0.34 3.34 -0.32 2.68 -1 2 C-0.67 1.34 -0.34 0.68 0 0 Z " fill="#6752EC" transform="translate(387,518)"/>
<path d="M0 0 C-5.2734375 3.22265625 -5.2734375 3.22265625 -7 4 C-7.66 3.67 -8.32 3.34 -9 3 C-5.83583464 -0.30799106 -4.50236011 -1.35070803 0 0 Z " fill="#654FE3" transform="translate(660,454)"/>
<path d="M0 0 C0.33 0.66 0.66 1.32 1 2 C0.22265625 3.7265625 0.22265625 3.7265625 -0.9375 5.625 C-1.618125 6.73875 -2.29875 7.8525 -3 9 C-3.89674777 6.48910624 -4.13172674 5.35464891 -3.1875 2.8125 C-2 1 -2 1 0 0 Z " fill="#503ADA" transform="translate(448,421)"/>
<path d="M0 0 C0.66 0.33 1.32 0.66 2 1 C1 4 1 4 -2 6 C-2.99 5.67 -3.98 5.34 -5 5 C-3.35 3.35 -1.7 1.7 0 0 Z " fill="#553BDD" transform="translate(437,368)"/>
<path d="M0 0 C3.36591866 1.44253657 5.51047079 3.33264727 8 6 C5.6875 5.8125 5.6875 5.8125 3 5 C1.1875 2.4375 1.1875 2.4375 0 0 Z " fill="#4D35DE" transform="translate(571,359)"/>
<path d="M0 0 C0.66 0.33 1.32 0.66 2 1 C0.25 3.0625 0.25 3.0625 -2 5 C-4.25 4.75 -4.25 4.75 -6 4 C-4.02 2.68 -2.04 1.36 0 0 Z " fill="#523BDA" transform="translate(455,355)"/>
<path d="M0 0 C2.25 0.25 2.25 0.25 4 1 C2.02 2.32 0.04 3.64 -2 5 C-2.66 4.67 -3.32 4.34 -4 4 C-2.25 1.9375 -2.25 1.9375 0 0 Z " fill="#5843DD" transform="translate(359,256)"/>
<path d="M0 0 C3.37503669 1.1858237 5.64722731 2.27573689 8 5 C5.125 4.75 5.125 4.75 2 4 C0.625 1.9375 0.625 1.9375 0 0 Z " fill="#6B58E6" transform="translate(616,228)"/>
<path d="M0 0 C3.37503669 1.1858237 5.64722731 2.27573689 8 5 C5.125 4.75 5.125 4.75 2 4 C0.625 1.9375 0.625 1.9375 0 0 Z " fill="#6653E5" transform="translate(567,198)"/>
<path d="M0 0 C2.875 0.25 2.875 0.25 6 1 C7.375 3.0625 7.375 3.0625 8 5 C4.62496331 3.8141763 2.35277269 2.72426311 0 0 Z " fill="#553FDF" transform="translate(531,177)"/>
<path d="M0 0 C2.25 0.25 2.25 0.25 4 1 C2.02 2.32 0.04 3.64 -2 5 C-2.66 4.67 -3.32 4.34 -4 4 C-2.25 1.9375 -2.25 1.9375 0 0 Z " fill="#5743DA" transform="translate(491,175)"/>
<path d="M0 0 C0.66 1.32 1.32 2.64 2 4 C1.34 3.67 0.68 3.34 0 3 C0 2.01 0 1.02 0 0 Z " fill="#7963E9" transform="translate(337,580)"/>
<path d="M0 0 C0.99 0 1.98 0 3 0 C2.67 0.66 2.34 1.32 2 2 C1.34 1.34 0.68 0.68 0 0 Z " fill="#7961E5" transform="translate(376,657)"/>
<path d="M0 0 C1.485 0.99 1.485 0.99 3 2 C2.01 2 1.02 2 0 2 C0 1.34 0 0.68 0 0 Z " fill="#7A66E8" transform="translate(308,480)"/>
<path d="M0 0 C3 1 3 1 3 1 Z " fill="#705ADC" transform="translate(490,830)"/>
<path d="M0 0 C0.66 0 1.32 0 2 0 C1.67 0.66 1.34 1.32 1 2 C0.67 1.34 0.34 0.68 0 0 Z " fill="#765EE4" transform="translate(416,731)"/>
<path d="M0 0 C0.66 0 1.32 0 2 0 C1.67 0.66 1.34 1.32 1 2 C0.67 1.34 0.34 0.68 0 0 Z " fill="#7A61E6" transform="translate(400,701)"/>
<path d="M0 0 C0.33 0.66 0.66 1.32 1 2 C0.34 1.67 -0.32 1.34 -1 1 C-0.67 0.67 -0.34 0.34 0 0 Z " fill="#7B65EB" transform="translate(307,524)"/>
<path d="M0 0 C3 1 3 1 3 1 Z " fill="#7C67E8" transform="translate(313,480)"/>
<path d="M0 0 C0.66 0 1.32 0 2 0 C1.67 0.66 1.34 1.32 1 2 C0.67 1.34 0.34 0.68 0 0 Z " fill="#7762EF" transform="translate(616,457)"/>
<path d="M0 0 C0.99 0.495 0.99 0.495 2 1 C1.01 1.495 1.01 1.495 0 2 C0 1.34 0 0.68 0 0 Z " fill="#7761ED" transform="translate(352,450)"/>
<path d="M0 0 C3 1 3 1 3 1 Z " fill="#725DE7" transform="translate(526,384)"/>
<path d="M0 0 C2 1 2 1 2 1 Z " fill="#735DD9" transform="translate(526,831)"/>
<path d="M0 0 C2 1 2 1 2 1 Z " fill="#7059DE" transform="translate(443,783)"/>
<path d="M0 0 C2 1 2 1 2 1 Z " fill="#725BE0" transform="translate(440,778)"/>
<path d="M0 0 C2 1 2 1 2 1 Z " fill="#765EE3" transform="translate(425,749)"/>
<path d="" fill="#755CE0" transform="translate(0,0)"/>
<path d="" fill="#755EE3" transform="translate(0,0)"/>
<path d="" fill="#7761E4" transform="translate(0,0)"/>
<path d="" fill="#7861EA" transform="translate(0,0)"/>
<path d="" fill="#7961E6" transform="translate(0,0)"/>
<path d="M0 0 C2 1 2 1 2 1 Z " fill="#7C66EC" transform="translate(328,566)"/>
<path d="M0 0 C2 1 2 1 2 1 Z " fill="#7968E5" transform="translate(454,552)"/>
<path d="M0 0 C2 1 2 1 2 1 Z " fill="#7966E9" transform="translate(313,536)"/>
<path d="M0 0 C2 1 2 1 2 1 Z " fill="#7C64EE" transform="translate(480,525)"/>
<path d="M0 0 C2 1 2 1 2 1 Z " fill="#7A66EF" transform="translate(382,513)"/>
<path d="M0 0 C2 1 2 1 2 1 Z " fill="#7C67F1" transform="translate(670,496)"/>
<path d="M0 0 C2 1 2 1 2 1 Z " fill="#7E67EF" transform="translate(441,487)"/>
<path d="M0 0 C2 1 2 1 2 1 Z " fill="#7D6BEF" transform="translate(697,483)"/>
<path d="" fill="#7E67EA" transform="translate(0,0)"/>
<path d="M0 0 C2 1 2 1 2 1 Z " fill="#7C68EB" transform="translate(709,480)"/>
<path d="M0 0 C2 1 2 1 2 1 Z " fill="#7861ED" transform="translate(357,455)"/>
<path d="" fill="#745EEB" transform="translate(0,0)"/>
<path d="" fill="#7560EC" transform="translate(0,0)"/>
<path d="" fill="#7562E5" transform="translate(0,0)"/>
<path d="" fill="#745CED" transform="translate(0,0)"/>
<path d="M0 0 C2 1 2 1 2 1 Z " fill="#7763E8" transform="translate(272,405)"/>
<path d="M0 0 C2 1 2 1 2 1 Z " fill="#7862F0" transform="translate(533,384)"/>
<path d="" fill="#7760EE" transform="translate(0,0)"/>
<path d="M0 0 C2 1 2 1 2 1 Z " fill="#7761EC" transform="translate(502,343)"/>
<path d="M0 0 C2 1 2 1 2 1 Z " fill="#7C64EA" transform="translate(419,217)"/>
<path d="" fill="#7E6AEA" transform="translate(0,0)"/>
<path d="" fill="#7059D9" transform="translate(0,0)"/>
<path d="" fill="#725BDA" transform="translate(0,0)"/>
<path d="" fill="#6D55D6" transform="translate(0,0)"/>
<path d="" fill="#705AD7" transform="translate(0,0)"/>
<path d="" fill="#6F5CD7" transform="translate(0,0)"/>
<path d="" fill="#6F5ADB" transform="translate(0,0)"/>
<path d="" fill="#705DDF" transform="translate(0,0)"/>
<path d="" fill="#6D56D9" transform="translate(0,0)"/>
<path d="" fill="#6F59DE" transform="translate(0,0)"/>
<path d="" fill="#6F59DC" transform="translate(0,0)"/>
<path d="" fill="#715ADF" transform="translate(0,0)"/>
<path d="" fill="#745CE0" transform="translate(0,0)"/>
<path d="" fill="#735EDF" transform="translate(0,0)"/>
<path d="" fill="#765EE4" transform="translate(0,0)"/>
<path d="" fill="#755CE2" transform="translate(0,0)"/>
<path d="" fill="#735EDF" transform="translate(0,0)"/>
<path d="" fill="#745EE3" transform="translate(0,0)"/>
<path d="" fill="#755EE4" transform="translate(0,0)"/>
<path d="" fill="#725EE0" transform="translate(0,0)"/>
<path d="" fill="#7560E3" transform="translate(0,0)"/>
<path d="" fill="#765EE4" transform="translate(0,0)"/>
<path d="" fill="#785EE4" transform="translate(0,0)"/>
<path d="" fill="#7661E5" transform="translate(0,0)"/>
<path d="" fill="#7962E7" transform="translate(0,0)"/>
<path d="" fill="#7861E5" transform="translate(0,0)"/>
<path d="" fill="#745FE2" transform="translate(0,0)"/>
<path d="" fill="#7861E4" transform="translate(0,0)"/>
<path d="" fill="#7863E4" transform="translate(0,0)"/>
<path d="" fill="#7861E8" transform="translate(0,0)"/>
<path d="" fill="#785FE7" transform="translate(0,0)"/>
<path d="" fill="#755FE6" transform="translate(0,0)"/>
<path d="" fill="#7C65E7" transform="translate(0,0)"/>
<path d="" fill="#7760E5" transform="translate(0,0)"/>
<path d="" fill="#7E64E7" transform="translate(0,0)"/>
<path d="" fill="#775FE4" transform="translate(0,0)"/>
<path d="" fill="#7A61E8" transform="translate(0,0)"/>
<path d="" fill="#7763E9" transform="translate(0,0)"/>
<path d="" fill="#7B65E4" transform="translate(0,0)"/>
<path d="" fill="#7A64EA" transform="translate(0,0)"/>
<path d="" fill="#7A63E7" transform="translate(0,0)"/>
<path d="" fill="#7A63E9" transform="translate(0,0)"/>
<path d="" fill="#7A63E8" transform="translate(0,0)"/>
<path d="" fill="#795FEB" transform="translate(0,0)"/>
<path d="" fill="#7B66EE" transform="translate(0,0)"/>
<path d="" fill="#7C65EA" transform="translate(0,0)"/>
<path d="" fill="#7A65E9" transform="translate(0,0)"/>
<path d="" fill="#7A64EF" transform="translate(0,0)"/>
<path d="" fill="#7A67EB" transform="translate(0,0)"/>
<path d="" fill="#7B67EC" transform="translate(0,0)"/>
<path d="" fill="#765FED" transform="translate(0,0)"/>
<path d="" fill="#7B65EF" transform="translate(0,0)"/>
<path d="" fill="#7965F1" transform="translate(0,0)"/>
<path d="" fill="#7B66ED" transform="translate(0,0)"/>
<path d="" fill="#7B65EB" transform="translate(0,0)"/>
<path d="" fill="#7B67EC" transform="translate(0,0)"/>
<path d="" fill="#7966F0" transform="translate(0,0)"/>
<path d="" fill="#7C64EC" transform="translate(0,0)"/>
<path d="" fill="#7C65F2" transform="translate(0,0)"/>
<path d="" fill="#7B61F0" transform="translate(0,0)"/>
<path d="" fill="#7964F2" transform="translate(0,0)"/>
<path d="" fill="#7B65F0" transform="translate(0,0)"/>
<path d="" fill="#7861EF" transform="translate(0,0)"/>
<path d="" fill="#7B65EA" transform="translate(0,0)"/>
<path d="" fill="#7E66ED" transform="translate(0,0)"/>
<path d="" fill="#7A64EA" transform="translate(0,0)"/>
<path d="" fill="#7865EC" transform="translate(0,0)"/>
<path d="" fill="#7A65EA" transform="translate(0,0)"/>
<path d="" fill="#7967EC" transform="translate(0,0)"/>
<path d="" fill="#7965E8" transform="translate(0,0)"/>
<path d="" fill="#7765ED" transform="translate(0,0)"/>
<path d="" fill="#7660F1" transform="translate(0,0)"/>
<path d="" fill="#7763EF" transform="translate(0,0)"/>
<path d="" fill="#7B61EF" transform="translate(0,0)"/>
<path d="" fill="#7B67ED" transform="translate(0,0)"/>
<path d="" fill="#7C69F3" transform="translate(0,0)"/>
<path d="" fill="#7D62EF" transform="translate(0,0)"/>
<path d="" fill="#775DEE" transform="translate(0,0)"/>
<path d="" fill="#7B64E8" transform="translate(0,0)"/>
<path d="" fill="#7760EE" transform="translate(0,0)"/>
<path d="" fill="#7963EC" transform="translate(0,0)"/>
<path d="" fill="#7F67E9" transform="translate(0,0)"/>
<path d="" fill="#7961E7" transform="translate(0,0)"/>
<path d="" fill="#7A67EF" transform="translate(0,0)"/>
<path d="" fill="#7D65F2" transform="translate(0,0)"/>
<path d="" fill="#7A66F4" transform="translate(0,0)"/>
<path d="" fill="#7968EA" transform="translate(0,0)"/>
<path d="" fill="#7963EF" transform="translate(0,0)"/>
<path d="" fill="#7660EE" transform="translate(0,0)"/>
<path d="" fill="#7E67E9" transform="translate(0,0)"/>
<path d="" fill="#7A62EF" transform="translate(0,0)"/>
<path d="" fill="#7D68F4" transform="translate(0,0)"/>
<path d="" fill="#7A63F0" transform="translate(0,0)"/>
<path d="" fill="#7E66F4" transform="translate(0,0)"/>
<path d="" fill="#7C66F1" transform="translate(0,0)"/>
<path d="" fill="#7964EC" transform="translate(0,0)"/>
<path d="" fill="#7C68E7" transform="translate(0,0)"/>
<path d="" fill="#7D66F1" transform="translate(0,0)"/>
<path d="" fill="#7A63F0" transform="translate(0,0)"/>
<path d="" fill="#7F69E9" transform="translate(0,0)"/>
<path d="" fill="#7B67EF" transform="translate(0,0)"/>
<path d="" fill="#7E68E9" transform="translate(0,0)"/>
<path d="" fill="#7865EC" transform="translate(0,0)"/>
<path d="" fill="#7864E8" transform="translate(0,0)"/>
<path d="" fill="#7966EF" transform="translate(0,0)"/>
<path d="" fill="#7A64F1" transform="translate(0,0)"/>
<path d="" fill="#7B66EE" transform="translate(0,0)"/>
<path d="" fill="#7C67F2" transform="translate(0,0)"/>
<path d="" fill="#7E69EF" transform="translate(0,0)"/>
<path d="" fill="#7D66F1" transform="translate(0,0)"/>
<path d="" fill="#7B67EE" transform="translate(0,0)"/>
<path d="" fill="#7F69EB" transform="translate(0,0)"/>
<path d="" fill="#7C66EB" transform="translate(0,0)"/>
<path d="" fill="#7E69EF" transform="translate(0,0)"/>
<path d="" fill="#7E68EB" transform="translate(0,0)"/>
<path d="" fill="#7D67EB" transform="translate(0,0)"/>
<path d="" fill="#7F69EE" transform="translate(0,0)"/>
<path d="" fill="#7E68EF" transform="translate(0,0)"/>
<path d="" fill="#7E6AEC" transform="translate(0,0)"/>
<path d="" fill="#7B64ED" transform="translate(0,0)"/>
<path d="" fill="#7A65EE" transform="translate(0,0)"/>
<path d="" fill="#7A64EC" transform="translate(0,0)"/>
<path d="" fill="#7662F2" transform="translate(0,0)"/>
<path d="" fill="#7768E8" transform="translate(0,0)"/>
<path d="" fill="#7660ED" transform="translate(0,0)"/>
<path d="" fill="#7B64ED" transform="translate(0,0)"/>
<path d="" fill="#7962EE" transform="translate(0,0)"/>
<path d="" fill="#7862EE" transform="translate(0,0)"/>
<path d="" fill="#7863ED" transform="translate(0,0)"/>
<path d="" fill="#7868EB" transform="translate(0,0)"/>
<path d="" fill="#7762F0" transform="translate(0,0)"/>
<path d="" fill="#7761EF" transform="translate(0,0)"/>
<path d="" fill="#7962EC" transform="translate(0,0)"/>
<path d="" fill="#7661EF" transform="translate(0,0)"/>
<path d="" fill="#7862EE" transform="translate(0,0)"/>
<path d="" fill="#735EEB" transform="translate(0,0)"/>
<path d="" fill="#7963EE" transform="translate(0,0)"/>
<path d="" fill="#7261EB" transform="translate(0,0)"/>
<path d="" fill="#7662EE" transform="translate(0,0)"/>
<path d="" fill="#7963ED" transform="translate(0,0)"/>
<path d="" fill="#7961EC" transform="translate(0,0)"/>
<path d="" fill="#745CE8" transform="translate(0,0)"/>
<path d="" fill="#7B66EB" transform="translate(0,0)"/>
<path d="" fill="#7A60EE" transform="translate(0,0)"/>
<path d="" fill="#735EE8" transform="translate(0,0)"/>
<path d="" fill="#7664EB" transform="translate(0,0)"/>
<path d="" fill="#7A62EE" transform="translate(0,0)"/>
<path d="" fill="#7961EB" transform="translate(0,0)"/>
<path d="" fill="#755EE8" transform="translate(0,0)"/>
<path d="" fill="#735FE8" transform="translate(0,0)"/>
<path d="" fill="#7961E9" transform="translate(0,0)"/>
<path d="" fill="#7863EB" transform="translate(0,0)"/>
<path d="" fill="#7462E5" transform="translate(0,0)"/>
<path d="" fill="#7460EA" transform="translate(0,0)"/>
<path d="" fill="#7965E8" transform="translate(0,0)"/>
<path d="" fill="#7860E8" transform="translate(0,0)"/>
<path d="" fill="#785FE5" transform="translate(0,0)"/>
<path d="" fill="#7863E5" transform="translate(0,0)"/>
<path d="" fill="#7A63EF" transform="translate(0,0)"/>
<path d="" fill="#7A64EF" transform="translate(0,0)"/>
<path d="" fill="#7B65ED" transform="translate(0,0)"/>
<path d="" fill="#7963F1" transform="translate(0,0)"/>
<path d="" fill="#7A63E4" transform="translate(0,0)"/>
<path d="" fill="#765DE5" transform="translate(0,0)"/>
<path d="" fill="#7B65E7" transform="translate(0,0)"/>
<path d="" fill="#7A64E7" transform="translate(0,0)"/>
<path d="" fill="#765FEA" transform="translate(0,0)"/>
<path d="" fill="#7A64EF" transform="translate(0,0)"/>
<path d="" fill="#7862EE" transform="translate(0,0)"/>
<path d="" fill="#7663EC" transform="translate(0,0)"/>
<path d="" fill="#7964E6" transform="translate(0,0)"/>
<path d="" fill="#7860E6" transform="translate(0,0)"/>
<path d="" fill="#7963E4" transform="translate(0,0)"/>
<path d="" fill="#7B64EF" transform="translate(0,0)"/>
<path d="" fill="#7762E4" transform="translate(0,0)"/>
<path d="" fill="#7961E7" transform="translate(0,0)"/>
<path d="" fill="#7762EF" transform="translate(0,0)"/>
<path d="" fill="#735FE5" transform="translate(0,0)"/>
<path d="" fill="#7762EF" transform="translate(0,0)"/>
<path d="" fill="#7962F1" transform="translate(0,0)"/>
<path d="" fill="#7564E6" transform="translate(0,0)"/>
<path d="" fill="#7A63DD" transform="translate(0,0)"/>
<path d="" fill="#7860EE" transform="translate(0,0)"/>
<path d="" fill="#7966E0" transform="translate(0,0)"/>
<path d="" fill="#7660E5" transform="translate(0,0)"/>
<path d="" fill="#7661EC" transform="translate(0,0)"/>
<path d="" fill="#7761EA" transform="translate(0,0)"/>
<path d="" fill="#775FEA" transform="translate(0,0)"/>
<path d="" fill="#765FEF" transform="translate(0,0)"/>
<path d="" fill="#735CEC" transform="translate(0,0)"/>
<path d="" fill="#745DED" transform="translate(0,0)"/>
<path d="" fill="#7863E8" transform="translate(0,0)"/>
<path d="" fill="#755EED" transform="translate(0,0)"/>
<path d="" fill="#6C58E8" transform="translate(0,0)"/>
<path d="" fill="#7A61EE" transform="translate(0,0)"/>
<path d="" fill="#775DEC" transform="translate(0,0)"/>
<path d="" fill="#7962F1" transform="translate(0,0)"/>
<path d="" fill="#7760F0" transform="translate(0,0)"/>
<path d="" fill="#6F5BDD" transform="translate(0,0)"/>
<path d="" fill="#7660E2" transform="translate(0,0)"/>
<path d="" fill="#7863E2" transform="translate(0,0)"/>
<path d="" fill="#7962E6" transform="translate(0,0)"/>
<path d="" fill="#755EE4" transform="translate(0,0)"/>
<path d="" fill="#755EE3" transform="translate(0,0)"/>
<path d="" fill="#7763E4" transform="translate(0,0)"/>
<path d="" fill="#7661E3" transform="translate(0,0)"/>
<path d="" fill="#7763E4" transform="translate(0,0)"/>
<path d="" fill="#7760E3" transform="translate(0,0)"/>
<path d="" fill="#7861E5" transform="translate(0,0)"/>
<path d="" fill="#7561E4" transform="translate(0,0)"/>
<path d="" fill="#7863E4" transform="translate(0,0)"/>
<path d="" fill="#7764E8" transform="translate(0,0)"/>
<path d="" fill="#7965EA" transform="translate(0,0)"/>
<path d="" fill="#7865E5" transform="translate(0,0)"/>
<path d="" fill="#7962E6" transform="translate(0,0)"/>
<path d="" fill="#7760E8" transform="translate(0,0)"/>
<path d="" fill="#7B64E8" transform="translate(0,0)"/>
<path d="" fill="#7965E9" transform="translate(0,0)"/>
<path d="" fill="#7761E9" transform="translate(0,0)"/>
<path d="" fill="#7861E9" transform="translate(0,0)"/>
<path d="" fill="#7C65EC" transform="translate(0,0)"/>
<path d="" fill="#7765E9" transform="translate(0,0)"/>
<path d="" fill="#7864E4" transform="translate(0,0)"/>
<path d="" fill="#7966E8" transform="translate(0,0)"/>
<path d="" fill="#7863E8" transform="translate(0,0)"/>
<path d="" fill="#7B67EE" transform="translate(0,0)"/>
<path d="" fill="#7964E8" transform="translate(0,0)"/>
<path d="" fill="#7867E8" transform="translate(0,0)"/>
<path d="" fill="#7C66EC" transform="translate(0,0)"/>
<path d="" fill="#7B66EC" transform="translate(0,0)"/>
<path d="" fill="#7865E8" transform="translate(0,0)"/>
<path d="" fill="#7964E8" transform="translate(0,0)"/>
<path d="" fill="#7760E8" transform="translate(0,0)"/>
<path d="" fill="#7A68E8" transform="translate(0,0)"/>
<path d="" fill="#7C67E9" transform="translate(0,0)"/>
<path d="" fill="#7A66E4" transform="translate(0,0)"/>
<path d="" fill="#7C68EC" transform="translate(0,0)"/>
<path d="" fill="#7863E9" transform="translate(0,0)"/>
<path d="" fill="#7A64EC" transform="translate(0,0)"/>
<path d="" fill="#7C64EB" transform="translate(0,0)"/>
<path d="" fill="#7761E8" transform="translate(0,0)"/>
<path d="" fill="#7B67EA" transform="translate(0,0)"/>
<path d="" fill="#7C68ED" transform="translate(0,0)"/>
<path d="" fill="#7963E9" transform="translate(0,0)"/>
<path d="" fill="#7865E8" transform="translate(0,0)"/>
<path d="" fill="#7A66EE" transform="translate(0,0)"/>
<path d="" fill="#7F68EB" transform="translate(0,0)"/>
<path d="" fill="#7A65EE" transform="translate(0,0)"/>
<path d="" fill="#7964EB" transform="translate(0,0)"/>
<path d="" fill="#7C66EA" transform="translate(0,0)"/>
<path d="" fill="#7964E9" transform="translate(0,0)"/>
<path d="" fill="#7A69E7" transform="translate(0,0)"/>
<path d="" fill="#7C69E8" transform="translate(0,0)"/>
<path d="" fill="#7863E8" transform="translate(0,0)"/>
<path d="" fill="#8069EB" transform="translate(0,0)"/>
<path d="" fill="#7762E6" transform="translate(0,0)"/>
<path d="" fill="#7E69E7" transform="translate(0,0)"/>
<path d="" fill="#7C64E8" transform="translate(0,0)"/>
<path d="" fill="#7A67EA" transform="translate(0,0)"/>
<path d="" fill="#7E68E9" transform="translate(0,0)"/>
<path d="" fill="#7861E3" transform="translate(0,0)"/>
<path d="" fill="#7B68E5" transform="translate(0,0)"/>
</svg>
